<?xml version="1.0" encoding="UTF-8"?>
<svg version="1.1" viewBox="0 0 1500 1500" width="1280" height="1280" xmlns="http://www.w3.org/2000/svg">
<path transform="translate(0)" d="m0 0h1500v1500h-1500z" fill="#fff"/>
<path transform="translate(427,645)" d="m0 0h33l87 3h35l88-3h30l2 3v9l-1 3-2 1-27 1-21 3-17 5-10 6-5 4-6 9-4 9-4 20-1 10v223l38-38 7-8 182-182 7-8 11-14 8-14 1-4v-7l-4-6-7-4-13-3-9-1-26-1-3-1-1-2v-11l2-2h27l84 3h49l36-1 34-2h23l2 2 1 6-2 7-4 1-25 2-26 5-27 8-25 9-24 11-22 12-18 12-16 12-11 9-12 11-8 7-36 36-8 7-41 41-8 7-29 29 2 4 13 17 13 16 10 13 44 56 56 72 12 15 22 28 13 16 11 14 12 14 9 11 9 10 7 8 14 15 11 10 17 13 14 8 12 5 20 5 15 2 26 2 1 2v11l-1 2h-168l-15-2-6-4-10-13-19-29-16-25-15-22-12-17-28-38-11-14-14-18-99-126-5-6-17 16-34 34v184l2 17 4 16 6 11 3 3v2l18 9 20 4 31 2 13 1 1 3v9l-1 3h-49l-44-1h-91l-40 1h-51l-1-1v-13l1-1 33-2 22-3 13-4 9-5 7-6 7-12 5-19 2-19v-434l-2-19-4-16-5-10-7-8-12-7-19-5-17-2-29-1-3-3v-11z" fill="#FD0000"/>
<path transform="translate(587,252)" d="m0 0h325l4 4 1 3v193h25l5 2 3 3v17l-4 10-6 9-8 6-7 3-12 1-339-1-10-5-8-8-6-12-1-3v-17l4-4 4-1h25v-193l2-5z" fill="#fff"/>
<path transform="translate(587,252)" d="m0 0h325l4 4 1 3v193h25l5 2 3 3v17l-4 10-6 9-8 6-7 3-12 1-339-1-10-5-8-8-6-12-1-3v-17l4-4 4-1h25v-193l2-5zm12 16v184l114 1h76l111-1v-184z" fill="#ED2647"/>
<path transform="translate(566,469)" d="m0 0h141l4 5 4 2h72l6-4 2-3h139l-4 10-7 6-2 1h-342l-7-4-6-9z" fill="#fff"/>
<path transform="translate(768,310)" d="m0 0 7 1 4 5-1 7-50 100-4 4h-7l-5-5v-6l51-102z" fill="#ED2647"/>
<path transform="translate(792,324)" d="m0 0 6 2 8 7 28 28 2 3v7l-7 8-31 31-2 1h-6l-5-5v-7l7-8 23-23-6-7-23-23-1-2v-7l4-4z" fill="#ED2647"/>
<path transform="translate(698,324)" d="m0 0 6 2 3 4v6l-7 8-23 23 6 7 22 22 2 3v7l-4 4-7 1-8-7-32-32v-8l7-8 30-30z" fill="#ED2647"/>
</svg>
