<svg version="1.1" viewBox="0 0 2048 2048" width="50" height="50" xmlns="http://www.w3.org/2000/svg">
<path transform="translate(0)" d="m0 0h2048v2048h-2048z" fill="#000600"></path>
<path transform="translate(226,896)" d="m0 0h1596l3 2 10 2 15 6 16 10 14 12 13 13 4 6 4 4 7 12 3 5 3 9 3 7 2 8 1 3v58l-2 5-2 9-4 9-3 8-10 15-13 15-11 11-5 3-5 5-9 5-12 6-11 5-4 1-4-1-1 2-5 1h-1593l-3-3-7 1-9-5-10-4-17-10-5-5-12-11-10-11-7-9-6-10-4-8-5-13-2-8-2-6 1-56 2-4 2-9 4-8 2-8 7-10 4-7 4-4 7-8 13-13 11-9 14-8 12-5 9-3 5-1z" fill="#FEFEFE"></path>
<path transform="translate(230,384)" d="m0 0h1590l16 4 12 5 17 10 5 4v2l5 2 18 18 6 8 6 9 6 10 3 10 3 6 2 9 1 1v59l-2 5-2 9-3 5-3 10-7 11-4 6-9 11-15 15-5 3-4 4-19 11-13 5-1 1h-7l-3 2-10 1h-1587l-3-3-7 1-9-5-11-4-9-6-7-4-5-5-12-11-7-7-7-9-5-8-7-11-4-11-5-16v-58l4-14 4-10 3-7 7-11 3-5 5-5 7-8 12-12 5-2 2-4 11-7 16-8 11-4h5z" fill="#FEFEFE"></path>
<path transform="translate(230,1408)" d="m0 0h1591l5 2 9 2 15 6 18 11 2 4 5 2 18 18 6 8 6 9 6 10 4 11 2 5 2 9 1 1v56l-4 17-3 5-3 10-7 11-4 6-9 11-15 15-5 3-5 5-9 5-12 6-11 5h-8l-2 2-10 1h-1587l-3-3-7 1-13-6-10-5-8-5-5-3-5-5-15-14-7-8-7-9-6-10-4-8-5-13-2-8-1-3v-59l2-4 2-9 4-9 2-7 7-10 4-7 5-5 7-8 13-13 9-7 13-8 19-8z" fill="#FEFEFE"></path>
</svg>