<?xml version="1.0" encoding="UTF-8"?>
<svg version="1.1" viewBox="0 0 2000 2000" width="1280" height="1280" xmlns="http://www.w3.org/2000/svg">
<path transform="translate(574,1221)" d="m0 0h851l8 3 6 4 7 8 4 10v12l-4 10-8 9-10 5-4 1h-849l-9-3-7-5-6-9-3-7v-15l6-12 7-6 8-4z" fill="#333232"/>
<path transform="translate(573,969)" d="m0 0h852l9 3 10 9 5 9 1 4v11l-4 11-8 9-10 5-6 1h-846l-11-4-8-7-5-8-2-5v-15l6-12 7-6z" fill="#343333"/>
<path transform="translate(573,716)" d="m0 0 853 1 10 4 9 9 4 8 1 4v12l-4 9-6 8-9 6-10 2h-844l-10-3-8-5-6-9-3-7v-15l6-12 4-5 10-6z" fill="#333232"/>
<path transform="translate(555,716)" d="m0 0 4 1v2h-4z" fill="#FEFFFE"/>
</svg>
